<?xml version="1.0" encoding="utf-8"?>
<svg version="1.2" baseProfile="tiny" xmlns="http://www.w3.org/2000/svg" xmlns:xlink="http://www.w3.org/1999/xlink" x="0px"
	 y="0px" viewBox="0 0 2054.1 1003" xml:space="preserve">

<g id="Wings_x5F_right">
	<path fill="#FFFFFF" d="M1255.9,225.4c1.1,28-1.3,62.4-16.8,93.1c-12.5,24.7-28.3,44.6-47,59.2c1.2-8.4,2-17.6,2.1-27.3
		c0.5-32.1-3.7-51.2-8.1-62.4c1-1.6,2.2-3.3,3.7-4.8c1.8-1.8,5.1-4,9.4-6.9c9.2-6.2,23.1-15.6,41.5-34
		C1246.3,236.7,1251.3,231,1255.9,225.4 M1270.6,170.6c-0.3,0-0.6,0.1-0.8,0.4c-5.7,7.4-20.7,34.6-43.1,57
		c-26.8,26.8-42.4,32.3-51,41c-7.5,7.6-10.7,16.9-11.4,19.1c-0.1,0.3,0,0.6,0.1,0.9c2.1,2.9,10.5,17.3,9.8,61.1
		c-0.4,31.4-8.8,57.1-11.2,64c-0.2,0.7,0.3,1.3,0.9,1.3c0.1,0,0.2,0,0.3,0c10.1-3,58.6-20.4,92.7-87.8
		c31.8-62.9,14.5-136.3,14.7-155.9C1271.6,171,1271.1,170.6,1270.6,170.6L1270.6,170.6z"/>
	<path fill="#FFFFFF" d="M1260.1,362.3c-25.7,39.4-54.3,56.7-73.7,65.8c0,0,15.9,13.2,60.1,30c44.3,16.8,67.2,18.4,67.2,18.4
		s14.9-15.9,32.9-54.5s20.3-67.9,20.3-67.9s-30,7.7-55.7,8.7C1285.6,363.9,1260.1,362.3,1260.1,362.3z"/>
	<path fill="#FFFFFF" d="M1274.8,336.5c-2.2,4.3-4.4,8.4-6.7,12.4c0,0,30.6,0.2,53.1-2.4c22.5-2.6,46.8-9.2,46.8-9.2
		s6.5-16.1,5.3-57.1s-8.8-59.4-8.8-59.4s-20.9,16.8-33.8,24.8c-13.9,8.6-35.6,17.1-35.6,17.1C1292.9,286.4,1287.2,312,1274.8,336.5z
		"/>
	<path fill="#FFFFFF" d="M1287.4,149.2c-1.1-7.3,10-9.4,17.7-21.8s10.1-23.1,10.1-23.1s15.2,14.8,30.9,46.8
		c15.6,32,16.7,50.5,16.7,50.5s-14.8,14-32.9,25.5c-13.6,8.7-33.7,16.6-33.7,16.6c0.5-22.6-1.7-42.6-3.2-57.1
		C1292.9,186.7,1288,153.5,1287.4,149.2z"/>
</g>
<g id="Wings_x5F_left">
	<path fill="#FFFFFF" d="M798.2,225.4c4.6,5.6,9.6,11.3,15.1,16.8c18.4,18.4,32.3,27.8,41.5,34c4.3,2.9,7.6,5.2,9.4,6.9
		c1.5,1.5,2.7,3.2,3.7,4.8c-4.4,11.2-8.5,30.4-8.1,62.4c0.1,9.7,1,18.9,2.1,27.3c-18.7-14.6-34.5-34.5-47-59.2
		C799.5,287.8,797.1,253.4,798.2,225.4 M783.5,170.6c-0.5,0-1,0.4-1,1c0.2,19.6-17.1,93,14.7,155.9c34.1,67.4,82.6,84.8,92.7,87.8
		c0.1,0,0.2,0,0.3,0c0.7,0,1.2-0.7,0.9-1.3c-2.4-6.9-10.8-32.6-11.2-64c-0.6-43.7,7.8-58.2,9.8-61.1c0.2-0.3,0.2-0.6,0.1-0.9
		c-0.7-2.2-3.9-11.6-11.4-19.1c-8.6-8.6-24.2-14.2-51-41c-22.4-22.4-37.4-49.6-43.1-57C784,170.7,783.7,170.6,783.5,170.6
		L783.5,170.6z"/>
	<path fill="#FFFFFF" d="M794,362.3c25.7,39.4,54.3,56.7,73.7,65.8c0,0-15.9,13.2-60.1,30c-44.3,16.8-67.2,18.4-67.2,18.4
		s-14.9-15.9-32.9-54.5c-18-38.6-20.3-67.9-20.3-67.9s30,7.7,55.7,8.7C768.5,363.9,794,362.3,794,362.3z"/>
	<path fill="#FFFFFF" d="M779.3,336.5c2.2,4.3,4.4,8.4,6.7,12.4c0,0-30.6,0.2-53.1-2.4c-22.5-2.6-46.8-9.2-46.8-9.2
		s-6.5-16.1-5.3-57.1s8.8-59.4,8.8-59.4s20.9,16.8,33.8,24.8c13.9,8.6,35.6,17.1,35.6,17.1C761.2,286.4,766.9,312,779.3,336.5z"/>
	<path fill="#FFFFFF" d="M766.7,149.2c1.1-7.3-10-9.4-17.7-21.8S739,104.3,739,104.3s-15.2,14.8-30.9,46.8s-16.7,50.5-16.7,50.5
		s14.8,14,32.9,25.5c13.6,8.7,33.7,16.6,33.7,16.6c-0.5-22.6,1.7-42.6,3.2-57.1C761.2,186.7,766.1,153.5,766.7,149.2z"/>
</g>
<g id="Scarab_x5F_left">
	<path fill="#FFFFFF" d="M963.4,364.3c4.7,2.1,9.8,4,15.4,5.6c8.5,2.5,16.3,4.4,22.7,5.9v76.9c-0.4-0.2-0.8-0.3-1.2-0.5
		c-11-4.8-25.3-13-30.9-25C959.1,405.2,960.3,382.1,963.4,364.3 M950.8,330.8c-0.5,0-1,0.5-1.1,1c-0.9,11.2-19.7,58.2,1.4,103.7
		c15.9,34.4,70.3,44.2,70.3,44.2V359.5c0,0-16.5-2.7-37-8.7c-22.5-6.6-30.3-16.1-33.1-19.7C951.1,330.9,951,330.8,950.8,330.8
		L950.8,330.8z"/>
</g>
<g id="Scarab_x5F_right">
	<path fill="#FFFFFF" d="M1057.1,252.3v9.4c0,16.2-13.5,29.5-30.1,29.5s-30.1-13.2-30.1-29.5v-9.4c-20.2,13.7-30.3,43.6-24.6,54.6
		c5.4,10.4,45.7,17.2,54.7,17.7c9-0.5,49.3-7.3,54.7-17.7C1087.4,295.9,1077.3,266,1057.1,252.3z"/>
	<path fill="#FFFFFF" d="M1027,281.4L1027,281.4c11.1,0,20.1-9,20.1-20.1v-25.5c0-11.1-9-20.1-20.1-20.1l0,0
		c-11.1,0-20.1,9-20.1,20.1v25.5C1006.9,272.4,1015.9,281.4,1027,281.4z"/>
	<path fill="#FFFFFF" d="M1090.7,364.3c3,17.7,4.3,40.8-5.9,62.8c-5.5,11.8-19.5,20-30.2,24.7c-0.6,0.3-1.3,0.6-1.9,0.8v-76.9
		c6.4-1.5,14.2-3.4,22.7-5.9C1080.9,368.3,1086,366.4,1090.7,364.3 M1103.3,330.8c-0.2,0-0.4,0.1-0.5,0.2
		c-2.7,3.5-10.5,13.1-33.1,19.7c-20.6,6.1-37,8.7-37,8.7v120.3c0,0,54.3-9.8,70.3-44.2c21.1-45.5,2.3-92.5,1.4-103.7
		C1104.3,331.3,1103.8,330.8,1103.3,330.8L1103.3,330.8z"/>
	<path fill="#FFFFFF" d="M1094.8,314.7c-2-6.4-4.3-9.7-4.3-9.7s-0.3,6.1-0.9,8c-1.3,4.5-7.7,10.5-31.1,16.7
		c-11.6,3.1-23.5,5-29.4,5.6c-1.3,0.2-2,0.4-2.1,0.4c0,0-0.8-0.1-2.1-0.4c-5.9-0.6-17.9-2.5-29.4-5.6c-23.5-6.2-29.8-12.2-31.1-16.7
		c-0.6-1.9-0.9-8-0.9-8s-2.3,3.3-4.3,9.7c-0.6,2.1-1.3,6.9-1.1,8.7c0.1,1.2,0.6,2.3,1.4,3.1c2.9,3.2,10.4,9.7,28.7,15.1
		c15.9,4.7,29.3,7.3,34.3,8.2c1.2,0.1,2.4,0.2,3.3,0.3h1.2h1.2c1-0.1,2.1-0.2,3.3-0.3c4.9-0.9,18.4-3.5,34.3-8.2
		c18.3-5.4,25.8-11.9,28.7-15.1c0.8-0.9,1.3-2,1.4-3.1C1096.1,321.6,1095.5,316.7,1094.8,314.7z"/>
</g>
<g id="Legs_x5F_right">
	<path fill="none" stroke="#FFFFFF" stroke-width="11.391" stroke-linecap="round" stroke-miterlimit="10" d="M1089.1,324l19.7-19.1
		l20,16.5c0.4,0.8,1.7,0.6,1.9-0.3c1.6-9.7,2.7-34.2-12.6-74.5c-16.7-43.9-42.8-51.6-42.8-51.6"/>
	<path fill="none" stroke="#FFFFFF" stroke-width="11" stroke-linecap="round" stroke-miterlimit="10" d="M1106.8,349.9l22.1-9.4
		c0.7-0.4,1.5,0.1,1.5,0.9c0,0,3,4.9,3,23.2s-1,22.2-1,22.2"/>
	<path fill="none" stroke="#FFFFFF" stroke-width="11" stroke-linecap="round" stroke-miterlimit="10" d="M1105.5,407.9l24.7,2.2
		c0,0,1.1,22.3-21.4,50.1c-22.6,27.7-54.6,36.2-54.6,36.2"/>
</g>
<g id="Legs_x5F_left">
	<path fill="none" stroke="#FFFFFF" stroke-width="11.391" stroke-linecap="round" stroke-miterlimit="10" d="M965,324L945.3,305
		l-20,16.5c-0.4,0.8-1.7,0.6-1.9-0.3c-1.6-9.7-2.7-34.2,12.6-74.5c16.7-43.9,42.8-51.6,42.8-51.6"/>
	<path fill="none" stroke="#FFFFFF" stroke-width="11" stroke-linecap="round" stroke-miterlimit="10" d="M947.3,349.9l-22.1-9.4
		c-0.7-0.4-1.5,0.1-1.5,0.9c0,0-3,4.9-3,23.2s1,22.2,1,22.2"/>
	<path fill="none" stroke="#FFFFFF" stroke-width="11" stroke-linecap="round" stroke-miterlimit="10" d="M948.6,407.9l-24.7,2.2
		c0,0-1.1,22.3,21.4,50.1c22.6,27.7,54.6,36.2,54.6,36.2"/>
</g>
<g id="Layer_10">
	<circle fill="#FFFFFF" cx="1027.1" cy="531.7" r="20.1"/>
	<g>
		<path fill="#FFFFFF" d="M13.5,809.2V631.4h53.7c18.2,0,33.3,6.9,45.2,20.7c11.9,13.8,17.8,31.6,17.8,53.3v29.9
			c0,21.7-5.9,39.5-17.8,53.2c-11.9,13.8-26.9,20.6-45.2,20.6H13.5z M48.3,659.1v122.3h17c9.7,0,17.2-4.2,22.4-12.6
			s7.9-19.6,7.9-33.5v-30.2c0-13.8-2.6-25-7.9-33.4c-5.2-8.4-12.7-12.6-22.4-12.6H48.3z"/>
		<path fill="#FFFFFF" d="M219.4,771.2h-46.9l-9.5,38h-35l50-177.7h36.1l49.9,177.7h-35L219.4,771.2z M179.7,743.5h32.7l-16-62.9
			h-0.7L179.7,743.5z"/>
		<path fill="#FFFFFF" d="M403.3,809.2h-34.5l-54.3-113.6l-0.7,0.2v113.4h-34.8V631.4h34.8L368,745l0.7-0.2V631.4h34.5V809.2z"/>
		<path fill="#FFFFFF" d="M535.4,751.9l0.4,0.7c0.2,19.5-4.5,34.3-13.9,44.2c-9.4,9.9-23.4,14.9-41.7,14.9
			c-18.4,0-33.1-5.6-44.1-16.9c-11-11.3-16.5-27.2-16.5-47.9v-53.1c0-20.6,5.3-36.6,15.9-47.9c10.6-11.4,24.8-17,42.7-17
			c18.9,0,33.1,5,42.8,15.1c9.6,10.1,14.6,25,15,44.8l-0.4,0.7H502c0.5-11.7-1.1-20.1-4.8-25.2c-3.7-5.1-10.1-7.7-19.2-7.7
			c-7.8,0-13.8,3.1-17.9,9.2s-6.2,15.4-6.2,27.7v53.4c0,12.5,2.2,21.9,6.7,28c4.4,6.1,10.9,9.2,19.5,9.2c8.4,0,14.2-2.4,17.5-7.3
			c3.3-4.8,4.7-13.1,4.3-24.8H535.4z"/>
		<path fill="#FFFFFF" d="M646.5,731.2h-59.7v50.3H657v27.7H552V631.4h104.7v27.7h-69.9v44.3h59.7V731.2z"/>
		<path fill="#FFFFFF" d="M809.8,771.2h-46.9l-9.5,38h-35l50-177.7h36.1l49.9,177.7h-35L809.8,771.2z M770,743.5h32.7l-16-62.9H786
			L770,743.5z"/>
		<path fill="#FFFFFF" d="M869,809.2V631.4h53.7c18.2,0,33.3,6.9,45.2,20.7c11.9,13.8,17.8,31.6,17.8,53.3v29.9
			c0,21.7-5.9,39.5-17.8,53.2c-11.9,13.8-26.9,20.6-45.2,20.6H869z M903.8,659.1v122.3h17c9.7,0,17.2-4.2,22.4-12.6
			s7.9-19.6,7.9-33.5v-30.2c0-13.8-2.6-25-7.9-33.4c-5.2-8.4-12.7-12.6-22.4-12.6H903.8z"/>
		<path fill="#FFFFFF" d="M1001.8,809.2V631.4h53.7c18.2,0,33.3,6.9,45.2,20.7c11.9,13.8,17.8,31.6,17.8,53.3v29.9
			c0,21.7-5.9,39.5-17.8,53.2c-11.9,13.8-26.9,20.6-45.2,20.6H1001.8z M1036.5,659.1v122.3h17c9.7,0,17.2-4.2,22.4-12.6
			s7.9-19.6,7.9-33.5v-30.2c0-13.8-2.6-25-7.9-33.4c-5.2-8.4-12.7-12.6-22.4-12.6H1036.5z"/>
		<path fill="#FFFFFF" d="M1168.1,809.2h-34.5V631.4h34.5V809.2z"/>
		<path fill="#FFFFFF" d="M1299.4,751.9l0.4,0.7c0.2,19.5-4.5,34.3-13.9,44.2c-9.4,9.9-23.4,14.9-41.7,14.9
			c-18.4,0-33.1-5.6-44.1-16.9c-11-11.3-16.5-27.2-16.5-47.9v-53.1c0-20.6,5.3-36.6,15.9-47.9c10.6-11.4,24.8-17,42.7-17
			c18.9,0,33.1,5,42.8,15.1c9.6,10.1,14.6,25,15,44.8l-0.4,0.7h-33.4c0.5-11.7-1.1-20.1-4.8-25.2c-3.7-5.1-10.1-7.7-19.2-7.7
			c-7.8,0-13.8,3.1-17.9,9.2s-6.2,15.4-6.2,27.7v53.4c0,12.5,2.2,21.9,6.7,28c4.4,6.1,10.9,9.2,19.5,9.2c8.4,0,14.2-2.4,17.5-7.3
			c3.3-4.8,4.7-13.1,4.3-24.8H1299.4z"/>
		<path fill="#FFFFFF" d="M1424.9,659.1h-40v150h-34.7v-150h-39.8v-27.7h114.5V659.1z"/>
		<path fill="#FFFFFF" d="M1601,659.1h-40v150h-34.7v-150h-39.8v-27.7H1601V659.1z"/>
		<path fill="#FFFFFF" d="M1710.2,731.2h-59.7v50.3h70.2v27.7h-105V631.4h104.7v27.7h-69.9v44.3h59.7V731.2z"/>
		<path fill="#FFFFFF" d="M1826.7,771.2h-46.9l-9.5,38h-35l50-177.7h36.1l49.9,177.7h-35L1826.7,771.2z M1787,743.5h32.7l-16-62.9
			h-0.7L1787,743.5z"/>
		<path fill="#FFFFFF" d="M1931.2,631.4l31.9,130.5h0.7l32.2-130.5h45.3v177.7h-34.5v-51.6l2.9-69.1l-0.7-0.1L1975,809.2h-23.1
			l-33.6-119.9l-0.7,0.1l3.1,68.1v51.6h-34.5V631.4H1931.2z"/>
	</g>
	<line fill="none" stroke="#FFFFFF" stroke-width="4" stroke-miterlimit="10" x1="824.4" y1="580.4" x2="1229.8" y2="580.4"/>
	<line fill="none" stroke="#FFFFFF" stroke-width="4" stroke-miterlimit="10" x1="639.5" y1="580.4" x2="734.8" y2="580.4"/>
	<line fill="none" stroke="#FFFFFF" stroke-width="4" stroke-miterlimit="10" x1="1319.3" y1="580.4" x2="1414.6" y2="580.4"/>
</g>
</svg>
